<mxfile host="app.diagrams.net" modified="2022-07-05T23:00:01.971Z" agent="5.0 (Windows NT 10.0; Win64; x64) AppleWebKit/537.36 (KHTML, like Gecko) Chrome/103.0.0.0 Safari/537.36" etag="m0bYsVFkh03__qfI8Jla" version="20.0.4" type="github">
  <diagram id="C5RBs43oDa-KdzZeNtuy" name="Page-1">
    <mxGraphModel dx="774" dy="552" grid="1" gridSize="10" guides="1" tooltips="1" connect="1" arrows="1" fold="1" page="1" pageScale="1" pageWidth="827" pageHeight="1169" math="0" shadow="0">
      <root>
        <mxCell id="WIyWlLk6GJQsqaUBKTNV-0" />
        <mxCell id="WIyWlLk6GJQsqaUBKTNV-1" parent="WIyWlLk6GJQsqaUBKTNV-0" />
        <mxCell id="5WjKXzqJecyYG2DC_vgh-0" value="&lt;span style=&quot;color: rgb(34, 34, 34); font-family: &amp;quot;Open Sans&amp;quot;, &amp;quot;Helvetica Neue&amp;quot;, Helvetica, Arial, sans-serif; font-size: 16px; background-color: rgb(245, 245, 245);&quot;&gt;Для списка пользователей добавьте приветствие по имени. Если пользователь не имеет премиум-подписки, то ему нужно показать рекламу.&lt;br&gt;&lt;/span&gt;" style="text;html=1;strokeColor=none;fillColor=none;spacing=5;spacingTop=-20;whiteSpace=wrap;overflow=hidden;rounded=0;" vertex="1" parent="WIyWlLk6GJQsqaUBKTNV-1">
          <mxGeometry x="530" y="80" width="290" height="110" as="geometry" />
        </mxCell>
        <mxCell id="5WjKXzqJecyYG2DC_vgh-4" value="" style="edgeStyle=orthogonalEdgeStyle;rounded=0;orthogonalLoop=1;jettySize=auto;html=1;" edge="1" parent="WIyWlLk6GJQsqaUBKTNV-1" source="5WjKXzqJecyYG2DC_vgh-2" target="5WjKXzqJecyYG2DC_vgh-3">
          <mxGeometry relative="1" as="geometry" />
        </mxCell>
        <mxCell id="5WjKXzqJecyYG2DC_vgh-2" value="Console.ReadLine();" style="shape=parallelogram;perimeter=parallelogramPerimeter;whiteSpace=wrap;html=1;fixedSize=1;" vertex="1" parent="WIyWlLk6GJQsqaUBKTNV-1">
          <mxGeometry x="220" y="280" width="160" height="30" as="geometry" />
        </mxCell>
        <mxCell id="5WjKXzqJecyYG2DC_vgh-11" value="" style="edgeStyle=orthogonalEdgeStyle;rounded=0;orthogonalLoop=1;jettySize=auto;html=1;entryX=0.5;entryY=0;entryDx=0;entryDy=0;" edge="1" parent="WIyWlLk6GJQsqaUBKTNV-1" source="5WjKXzqJecyYG2DC_vgh-3" target="5WjKXzqJecyYG2DC_vgh-10">
          <mxGeometry relative="1" as="geometry">
            <mxPoint x="130.0588235294117" y="460.03361344537825" as="targetPoint" />
          </mxGeometry>
        </mxCell>
        <mxCell id="5WjKXzqJecyYG2DC_vgh-3" value="List." style="rhombus;whiteSpace=wrap;html=1;" vertex="1" parent="WIyWlLk6GJQsqaUBKTNV-1">
          <mxGeometry x="220" y="350" width="160" height="80" as="geometry" />
        </mxCell>
        <mxCell id="5WjKXzqJecyYG2DC_vgh-19" style="edgeStyle=orthogonalEdgeStyle;rounded=0;orthogonalLoop=1;jettySize=auto;html=1;entryX=0.5;entryY=0;entryDx=0;entryDy=0;exitX=0.5;exitY=1;exitDx=0;exitDy=0;" edge="1" parent="WIyWlLk6GJQsqaUBKTNV-1" source="5WjKXzqJecyYG2DC_vgh-22" target="5WjKXzqJecyYG2DC_vgh-14">
          <mxGeometry relative="1" as="geometry" />
        </mxCell>
        <mxCell id="5WjKXzqJecyYG2DC_vgh-23" value="" style="edgeStyle=orthogonalEdgeStyle;rounded=0;orthogonalLoop=1;jettySize=auto;html=1;" edge="1" parent="WIyWlLk6GJQsqaUBKTNV-1" source="5WjKXzqJecyYG2DC_vgh-5" target="5WjKXzqJecyYG2DC_vgh-22">
          <mxGeometry relative="1" as="geometry" />
        </mxCell>
        <mxCell id="5WjKXzqJecyYG2DC_vgh-5" value="Начало" style="ellipse;whiteSpace=wrap;html=1;" vertex="1" parent="WIyWlLk6GJQsqaUBKTNV-1">
          <mxGeometry x="260" y="50" width="80" height="40" as="geometry" />
        </mxCell>
        <mxCell id="5WjKXzqJecyYG2DC_vgh-10" value="" style="rhombus;whiteSpace=wrap;html=1;" vertex="1" parent="WIyWlLk6GJQsqaUBKTNV-1">
          <mxGeometry x="60" y="440" width="140" height="80" as="geometry" />
        </mxCell>
        <mxCell id="5WjKXzqJecyYG2DC_vgh-16" style="edgeStyle=orthogonalEdgeStyle;rounded=0;orthogonalLoop=1;jettySize=auto;html=1;entryX=0.5;entryY=0;entryDx=0;entryDy=0;" edge="1" parent="WIyWlLk6GJQsqaUBKTNV-1" source="5WjKXzqJecyYG2DC_vgh-14" target="5WjKXzqJecyYG2DC_vgh-2">
          <mxGeometry relative="1" as="geometry" />
        </mxCell>
        <mxCell id="5WjKXzqJecyYG2DC_vgh-14" value="string LogName = Console.Writeline(&quot;Введите имя&quot;);" style="shape=parallelogram;perimeter=parallelogramPerimeter;whiteSpace=wrap;html=1;fixedSize=1;" vertex="1" parent="WIyWlLk6GJQsqaUBKTNV-1">
          <mxGeometry x="140" y="220" width="320" height="30" as="geometry" />
        </mxCell>
        <mxCell id="5WjKXzqJecyYG2DC_vgh-20" style="edgeStyle=orthogonalEdgeStyle;rounded=0;orthogonalLoop=1;jettySize=auto;html=1;exitX=0.5;exitY=1;exitDx=0;exitDy=0;" edge="1" parent="WIyWlLk6GJQsqaUBKTNV-1" source="5WjKXzqJecyYG2DC_vgh-14" target="5WjKXzqJecyYG2DC_vgh-14">
          <mxGeometry relative="1" as="geometry" />
        </mxCell>
        <mxCell id="5WjKXzqJecyYG2DC_vgh-22" value="UserList user = new UserList();" style="whiteSpace=wrap;html=1;" vertex="1" parent="WIyWlLk6GJQsqaUBKTNV-1">
          <mxGeometry x="205" y="115" width="190" height="40" as="geometry" />
        </mxCell>
        <mxCell id="5WjKXzqJecyYG2DC_vgh-24" value="" style="shape=hexagon;perimeter=hexagonPerimeter2;whiteSpace=wrap;html=1;fixedSize=1;" vertex="1" parent="WIyWlLk6GJQsqaUBKTNV-1">
          <mxGeometry x="430" y="390" width="140" height="80" as="geometry" />
        </mxCell>
      </root>
    </mxGraphModel>
  </diagram>
</mxfile>
